# xmcd
#
# Track frame offsets: 
#        150
#        17662
#        31600
#        44790
#        61642
#        75967
#        90012
#        103985
#        117875
#        132372
#
# Disc length: 2019 seconds
#
# Revision: 2
# Processed by: cddbd v1.4PL0 Copyright (c) Steve Scherf et al.
# Submitted via: ExactAudioCopy v0.90b4
#
DISCID=6c07e10a
DTITLE=Dan Seals - The Songwriter
DYEAR=1992
DGENRE=Country
TTITLE0=Love On Arrival
TTITLE1=Three Time Loser
TTITLE2=Candle In The Rain
TTITLE3=Factory Town
TTITLE4=One Friend
TTITLE5=God Must Be A Cowboy
TTITLE6=I Won't Be Blue Anymore
TTITLE7=Headin' West
TTITLE8=Those
TTITLE9=Wood
EXTD=39
EXTT0=
EXTT1=
EXTT2=
EXTT3=
EXTT4=
EXTT5=
EXTT6=
EXTT7=
EXTT8=
EXTT9=
PLAYORDER=
